<?xml version="1.0" standalone="yes"?>

<svg version="1.1" viewBox="0.0 0.0 480.0 200.0" fill="none" stroke="none" stroke-linecap="square" stroke-miterlimit="10" xmlns="http://www.w3.org/2000/svg" xmlns:xlink="http://www.w3.org/1999/xlink"><clipPath id="p.0"><path d="m0 0l720.0 0l0 540.0l-720.0 0l0 -540.0z" clip-rule="nonzero"></path></clipPath><g clip-path="url(#p.0)"><path fill="#000000" fill-opacity="0.0" d="m0 0l720.0 0l0 540.0l-720.0 0z" fill-rule="evenodd"></path><path stroke="#000000" stroke-width="1.3333333333333333" stroke-linecap="butt" d="m16.0 15.501312l0 157.66405" fill-rule="nonzero"></path><path stroke="#000000" stroke-width="1.3333333333333333" stroke-linecap="butt" d="m116.0 15.501312l0 157.66405" fill-rule="nonzero"></path><path stroke="#000000" stroke-width="1.3333333333333333" stroke-linecap="butt" d="m15.501312 16.0l100.997375 0" fill-rule="nonzero"></path><path stroke="#000000" stroke-width="1.3333333333333333" stroke-linecap="butt" d="m15.501312 47.333332l100.997375 0" fill-rule="nonzero"></path><path stroke="#000000" stroke-width="1.3333333333333333" stroke-linecap="butt" d="m15.501312 78.666664l100.997375 0" fill-rule="nonzero"></path><path stroke="#000000" stroke-width="1.3333333333333333" stroke-linecap="butt" d="m15.501312 110.0l100.997375 0" fill-rule="nonzero"></path><path stroke="#000000" stroke-width="1.3333333333333333" stroke-linecap="butt" d="m15.501312 141.33333l100.997375 0" fill-rule="nonzero"></path><path stroke="#000000" stroke-width="1.3333333333333333" stroke-linecap="butt" d="m15.501312 172.66667l100.997375 0" fill-rule="nonzero"></path><path fill="#000000" d="m29.96875 32.126877l2.09375 0.671875q-0.484375 1.75 -1.609375 2.609375q-1.125 0.859375 -2.84375 0.859375q-2.140625 0 -3.53125 -1.453125q-1.375 -1.46875 -1.375 -4.015627q0 -2.671875 1.390625 -4.15625q1.390625 -1.484375 3.640625 -1.484375q1.96875 0 3.203125 1.171875q0.734375 0.6875 1.09375 1.96875l-2.140625 0.515625q-0.1875 -0.828125 -0.796875 -1.3125q-0.609375 -0.484375 -1.46875 -0.484375q-1.1875 0 -1.9375 0.859375q-0.75 0.84375 -0.75 2.765625q0 2.031252 0.734375 2.906252q0.734375 0.859375 1.90625 0.859375q0.875 0 1.484375 -0.546875q0.625 -0.546875 0.90625 -1.734375zm5.2248993 -1.4531269l-1.859375 -0.34375q0.3125 -1.125 1.078125 -1.65625q0.765625 -0.546875 2.28125 -0.546875q1.390625 0 2.0625 0.328125q0.671875 0.328125 0.9375 0.828125q0.28125 0.5 0.28125 1.84375l-0.015625 2.390627q0 1.03125 0.09375 1.515625q0.09375 0.484375 0.375 1.046875l-2.046875 0q-0.078125 -0.203125 -0.1875 -0.609375q-0.0625 -0.1875 -0.078125 -0.234375q-0.53125 0.5 -1.140625 0.765625q-0.59375 0.25 -1.265625 0.25q-1.203125 0 -1.90625 -0.640625q-0.6875 -0.65625 -0.6875 -1.65625q0 -0.65625 0.3125 -1.171875q0.328125 -0.515625 0.890625 -0.78125q0.5625 -0.2812519 1.640625 -0.5000019q1.4375 -0.265625 2.0 -0.5l0 -0.203125q0 -0.59375 -0.296875 -0.84375q-0.296875 -0.25 -1.109375 -0.25q-0.546875 0 -0.859375 0.21875q-0.296875 0.203125 -0.5 0.75zm2.765625 1.6718769q-0.40625 0.125 -1.265625 0.3125q-0.84375 0.1875 -1.109375 0.359375q-0.40625 0.28125 -0.40625 0.71875q0 0.4375 0.3125 0.75q0.328125 0.3125 0.828125 0.3125q0.5625 0 1.0625 -0.359375q0.375 -0.28125 0.484375 -0.6875q0.09375 -0.25 0.09375 -1.0l0 -0.40625zm7.416733 -4.046877l0 1.640625l-1.40625 0l0 3.140627q0 0.953125 0.03125 1.109375q0.046875 0.15625 0.1875 0.265625q0.15625 0.09375 0.359375 0.09375q0.28125 0 0.828125 -0.203125l0.171875 1.609375q-0.71875 0.296875 -1.625 0.296875q-0.5625 0 -1.015625 -0.1875q-0.4375 -0.1875 -0.65625 -0.484375q-0.203125 -0.296875 -0.28125 -0.796875q-0.0625 -0.359375 -0.0625 -1.453125l0 -3.390627l-0.9375 0l0 -1.640625l0.9375 0l0 -1.546875l2.0625 -1.203125l0 2.75l1.40625 0zm5.8181458 5.312502l2.046875 0.34375q-0.390625 1.125 -1.25 1.71875q-0.84375 0.578125 -2.125 0.578125q-2.03125 0 -3.0 -1.328125q-0.78125 -1.0625 -0.78125 -2.671875q0 -1.9375019 1.015625 -3.031252q1.015625 -1.09375 2.5625 -1.09375q1.734375 0 2.734375 1.15625q1.0 1.140625 0.953125 3.500002l-5.15625 0q0.03125 0.921875 0.5 1.4375q0.484375 0.5 1.1875 0.5q0.484375 0 0.8125 -0.265625q0.328125 -0.265625 0.5 -0.84375zm0.125 -2.093752q-0.03125 -0.890625 -0.46875 -1.34375q-0.4375 -0.46875 -1.0625 -0.46875q-0.671875 0 -1.125 0.484375q-0.4375 0.5 -0.421875 1.328125l3.078125 0zm3.3386078 5.078127l2.34375 0.28125q0.0625 0.40625 0.28125 0.5625q0.28125 0.21875 0.921875 0.21875q0.796875 0 1.203125 -0.234375q0.265625 -0.171875 0.40625 -0.515625q0.09375 -0.265625 0.09375 -0.953125l0 -1.140625q-0.921875 1.265625 -2.328125 1.265625q-1.5625 0 -2.484375 -1.328125q-0.71875 -1.046875 -0.71875 -2.609375q0 -1.9531269 0.9375 -2.984377q0.953125 -1.03125 2.34375 -1.03125q1.453125 0 2.390625 1.265625l0 -1.09375l1.921875 0l0 6.984377q0 1.375 -0.234375 2.046875q-0.21875 0.6875 -0.640625 1.078125q-0.40625 0.390625 -1.09375 0.609375q-0.671875 0.21875 -1.71875 0.21875q-1.984375 0 -2.8125 -0.6875q-0.828125 -0.671875 -0.828125 -1.703125q0 -0.109375 0.015625 -0.25zm1.828125 -4.5625q0 1.234375 0.484375 1.8125q0.484375 0.578125 1.1875 0.578125q0.75 0 1.265625 -0.59375q0.53125 -0.59375 0.53125 -1.75q0 -1.2031269 -0.5 -1.7812519q-0.5 -0.59375 -1.265625 -0.59375q-0.734375 0 -1.21875 0.578125q-0.484375 0.5625 -0.484375 1.7500019zm6.8276215 0.046875q0 -1.0312519 0.5 -1.9843769q0.515625 -0.953125 1.4375 -1.453125q0.9375 -0.515625 2.078125 -0.515625q1.765625 0 2.890625 1.15625q1.125 1.140625 1.125 2.890627q0 1.765625 -1.140625 2.921875q-1.140625 1.15625 -2.859375 1.15625q-1.078125 0 -2.046875 -0.484375q-0.96875 -0.484375 -1.484375 -1.40625q-0.5 -0.9375 -0.5 -2.28125zm2.109375 0.109375q0 1.15625 0.546875 1.78125q0.5625 0.609375 1.359375 0.609375q0.8125 0 1.359375 -0.609375q0.546875 -0.625 0.546875 -1.796875q0 -1.1406269 -0.546875 -1.7500019q-0.546875 -0.625 -1.359375 -0.625q-0.796875 0 -1.359375 0.625q-0.546875 0.609375 -0.546875 1.7656269zm9.296371 3.890625l-2.0625 0l0 -7.781252l1.921875 0l0 1.109375q0.484375 -0.78125 0.875 -1.03125q0.390625 -0.25 0.890625 -0.25q0.703125 0 1.359375 0.390625l-0.640625 1.796875q-0.515625 -0.34375 -0.96875 -0.34375q-0.4375 0 -0.734375 0.25q-0.296875 0.234375 -0.46875 0.859375q-0.171875 0.609375 -0.171875 2.593752l0 2.40625zm2.7661285 -7.781252l2.1875 0l1.859375 5.531252l1.8125 -5.531252l2.125 0l-2.734375 7.484377l-0.5 1.359375q-0.265625 0.6875 -0.515625 1.046875q-0.234375 0.359375 -0.5625 0.578125q-0.3125 0.21875 -0.78125 0.34375q-0.46875 0.125 -1.046875 0.125q-0.59375 0 -1.171875 -0.125l-0.1875 -1.609375q0.484375 0.09375 0.875 0.09375q0.71875 0 1.0625 -0.421875q0.34375 -0.421875 0.53125 -1.078125l-2.953125 -7.796877z" fill-rule="nonzero"></path><path fill="#000000" d="m30.8125 63.64771l1.421875 0.3593712q-0.4375 1.75 -1.609375 2.671875q-1.15625 0.921875 -2.828125 0.921875q-1.734375 0 -2.828125 -0.703125q-1.09375 -0.71875 -1.65625 -2.046875q-0.5625 -1.3437462 -0.5625 -2.8906212q0 -1.671875 0.640625 -2.921875q0.640625 -1.25 1.8125 -1.890625q1.1875 -0.65625 2.609375 -0.65625q1.609375 0 2.703125 0.828125q1.109375 0.8125 1.546875 2.296875l-1.40625 0.328125q-0.375 -1.171875 -1.09375 -1.703125q-0.703125 -0.53125 -1.78125 -0.53125q-1.234375 0 -2.0625 0.59375q-0.828125 0.59375 -1.171875 1.59375q-0.328125 1.0 -0.328125 2.0625q0 1.359375 0.390625 2.3906212q0.40625 1.015625 1.234375 1.53125q0.84375 0.5 1.828125 0.5q1.203125 0 2.03125 -0.6875q0.828125 -0.6875 1.109375 -2.0468712zm7.8342743 2.8124962q-0.734375 0.609375 -1.40625 0.875q-0.671875 0.25 -1.453125 0.25q-1.28125 0 -1.96875 -0.625q-0.6875 -0.625 -0.6875 -1.59375q0 -0.578125 0.25 -1.046875q0.265625 -0.4687462 0.6875 -0.7499962q0.421875 -0.296875 0.953125 -0.4375q0.375 -0.109375 1.171875 -0.203125q1.59375 -0.1875 2.34375 -0.453125q0.015625 -0.265625 0.015625 -0.34375q0 -0.8125 -0.375 -1.140625q-0.515625 -0.4375 -1.5 -0.4375q-0.9375 0 -1.390625 0.328125q-0.4375 0.3125 -0.640625 1.140625l-1.296875 -0.171875q0.171875 -0.828125 0.578125 -1.328125q0.40625 -0.515625 1.171875 -0.78125q0.765625 -0.28125 1.765625 -0.28125q1.0 0 1.609375 0.234375q0.625 0.234375 0.921875 0.59375q0.296875 0.34375 0.40625 0.890625q0.0625 0.34375 0.0625 1.21875l0 1.7499962q0 1.84375 0.078125 2.328125q0.09375 0.484375 0.34375 0.9375l-1.375 0q-0.203125 -0.40625 -0.265625 -0.953125zm-0.109375 -2.9531212q-0.71875 0.296875 -2.15625 0.4999962q-0.8125 0.125 -1.15625 0.265625q-0.328125 0.140625 -0.515625 0.421875q-0.171875 0.28125 -0.171875 0.625q0 0.53125 0.390625 0.890625q0.40625 0.34375 1.171875 0.34375q0.765625 0 1.359375 -0.328125q0.59375 -0.34375 0.875 -0.921875q0.203125 -0.4375 0.203125 -1.3124962l0 -0.484375zm6.072983 2.7343712l0.1875 1.15625q-0.5625 0.125 -1.0 0.125q-0.71875 0 -1.125 -0.234375q-0.390625 -0.234375 -0.546875 -0.59375q-0.15625 -0.375 -0.15625 -1.5625l0 -4.468746l-0.96875 0l0 -1.03125l0.96875 0l0 -1.921875l1.3125 -0.796875l0 2.71875l1.328125 0l0 1.03125l-1.328125 0l0 4.546871q0 0.5625 0.0625 0.734375q0.078125 0.15625 0.234375 0.25q0.15625 0.09375 0.4375 0.09375q0.234375 0 0.59375 -0.046875z" fill-rule="nonzero"></path><path fill="#000000" d="m23.15625 98.746666l0 -10.734375l3.703125 0q1.25 0 1.90625 0.15625q0.921875 0.203125 1.578125 0.765625q0.84375 0.71875 1.265625 1.84375q0.421875 1.109375 0.421875 2.546875q0 1.21875 -0.28125 2.171875q-0.28125 0.9375 -0.734375 1.5625q-0.453125 0.609375 -0.984375 0.96875q-0.53125 0.359375 -1.28125 0.546875q-0.75 0.171875 -1.71875 0.171875l-3.875 0zm1.421875 -1.265625l2.296875 0q1.0625 0 1.65625 -0.1875q0.609375 -0.203125 0.96875 -0.5625q0.5 -0.515625 0.78125 -1.359375q0.28125 -0.859375 0.28125 -2.078125q0 -1.6875 -0.546875 -2.578125q-0.546875 -0.90625 -1.34375 -1.21875q-0.578125 -0.21875 -1.84375 -0.21875l-2.25 0l0 8.203125zm8.506149 -2.625q0 -2.15625 1.203125 -3.203125q1.0 -0.859375 2.4375 -0.859375q1.609375 0 2.625 1.046875q1.015625 1.046875 1.015625 2.90625q0 1.5 -0.453125 2.359375q-0.4375 0.859375 -1.3125 1.34375q-0.859375 0.46875 -1.875 0.46875q-1.625 0 -2.640625 -1.046875q-1.0 -1.046875 -1.0 -3.015625zm1.359375 0q0 1.5 0.640625 2.25q0.65625 0.734375 1.640625 0.734375q0.984375 0 1.640625 -0.75q0.65625 -0.75 0.65625 -2.28125q0 -1.4375 -0.65625 -2.171875q-0.65625 -0.75 -1.640625 -0.75q-0.984375 0 -1.640625 0.734375q-0.640625 0.734375 -0.640625 2.234375zm7.041733 4.53125l1.28125 0.1875q0.078125 0.59375 0.4375 0.875q0.5 0.359375 1.34375 0.359375q0.921875 0 1.421875 -0.375q0.5 -0.359375 0.671875 -1.015625q0.09375 -0.40625 0.09375 -1.6875q-0.859375 1.015625 -2.15625 1.015625q-1.609375 0 -2.484375 -1.15625q-0.875 -1.15625 -0.875 -2.78125q0 -1.109375 0.40625 -2.046875q0.40625 -0.9375 1.15625 -1.453125q0.765625 -0.515625 1.8125 -0.515625q1.375 0 2.265625 1.109375l0 -0.9375l1.21875 0l0 6.71875q0 1.828125 -0.375 2.578125q-0.375 0.765625 -1.171875 1.203125q-0.796875 0.4375 -1.96875 0.4375q-1.390625 0 -2.25 -0.625q-0.859375 -0.625 -0.828125 -1.890625zm1.09375 -4.671875q0 1.53125 0.59375 2.234375q0.609375 0.703125 1.53125 0.703125q0.90625 0 1.515625 -0.6875q0.625 -0.703125 0.625 -2.203125q0 -1.421875 -0.640625 -2.140625q-0.625 -0.734375 -1.515625 -0.734375q-0.890625 0 -1.5 0.71875q-0.609375 0.703125 -0.609375 2.109375z" fill-rule="nonzero"></path><path fill="#000000" d="m23.234375 130.08l0 -10.734375l7.234375 0l0 1.265625l-5.8125 0l0 3.328125l5.03125 0l0 1.265625l-5.03125 0l0 4.875l-1.421875 0zm8.718246 -9.21875l0 -1.515625l1.3125 0l0 1.515625l-1.3125 0zm0 9.21875l0 -7.78125l1.3125 0l0 7.78125l-1.3125 0zm2.7248993 -2.328125l1.296875 -0.203125q0.109375 0.78125 0.609375 1.203125q0.5 0.421875 1.40625 0.421875q0.90625 0 1.34375 -0.359375q0.4375 -0.375 0.4375 -0.875q0 -0.453125 -0.390625 -0.703125q-0.265625 -0.1875 -1.34375 -0.453125q-1.453125 -0.359375 -2.015625 -0.625q-0.546875 -0.28125 -0.84375 -0.75q-0.28125 -0.46875 -0.28125 -1.046875q0 -0.515625 0.234375 -0.953125q0.234375 -0.453125 0.640625 -0.734375q0.3125 -0.234375 0.84375 -0.390625q0.53125 -0.15625 1.140625 -0.15625q0.90625 0 1.59375 0.265625q0.703125 0.265625 1.03125 0.71875q0.328125 0.4375 0.453125 1.203125l-1.28125 0.171875q-0.09375 -0.609375 -0.515625 -0.9375q-0.421875 -0.34375 -1.1875 -0.34375q-0.90625 0 -1.296875 0.3125q-0.390625 0.296875 -0.390625 0.703125q0 0.25 0.15625 0.453125q0.171875 0.21875 0.515625 0.359375q0.1875 0.0625 1.15625 0.328125q1.40625 0.375 1.953125 0.609375q0.5625 0.234375 0.875 0.703125q0.3125 0.453125 0.3125 1.125q0 0.65625 -0.390625 1.234375q-0.375 0.578125 -1.109375 0.90625q-0.71875 0.3125 -1.640625 0.3125q-1.515625 0 -2.3125 -0.625q-0.78125 -0.625 -1.0 -1.875zm7.84375 2.328125l0 -10.734375l1.328125 0l0 3.84375q0.921875 -1.0625 2.328125 -1.0625q0.859375 0 1.5 0.34375q0.640625 0.34375 0.90625 0.9375q0.28125 0.59375 0.28125 1.75l0 4.921875l-1.328125 0l0 -4.921875q0 -1.0 -0.421875 -1.4375q-0.421875 -0.453125 -1.21875 -0.453125q-0.578125 0 -1.09375 0.296875q-0.515625 0.296875 -0.734375 0.828125q-0.21875 0.515625 -0.21875 1.4375l0 4.25l-1.328125 0z" fill-rule="nonzero"></path><path fill="#000000" d="m23.15625 161.41333l0 -10.734375l3.703125 0q1.25 0 1.90625 0.15625q0.921875 0.203125 1.578125 0.765625q0.84375 0.71875 1.265625 1.84375q0.421875 1.109375 0.421875 2.546875q0 1.21875 -0.28125 2.171875q-0.28125 0.9375 -0.734375 1.5625q-0.453125 0.609375 -0.984375 0.96875q-0.53125 0.359375 -1.28125 0.546875q-0.75 0.171875 -1.71875 0.171875l-3.875 0zm1.421875 -1.265625l2.296875 0q1.0625 0 1.65625 -0.1875q0.609375 -0.203125 0.96875 -0.5625q0.5 -0.515625 0.78125 -1.359375q0.28125 -0.859375 0.28125 -2.078125q0 -1.6875 -0.546875 -2.578125q-0.546875 -0.90625 -1.34375 -1.21875q-0.578125 -0.21875 -1.84375 -0.21875l-2.25 0l0 8.203125zm8.506149 -2.625q0 -2.15625 1.203125 -3.203125q1.0 -0.859375 2.4375 -0.859375q1.609375 0 2.625 1.046875q1.015625 1.046875 1.015625 2.90625q0 1.5 -0.453125 2.359375q-0.4375 0.859375 -1.3125 1.34375q-0.859375 0.46875 -1.875 0.46875q-1.625 0 -2.640625 -1.046875q-1.0 -1.046875 -1.0 -3.015625zm1.359375 0q0 1.5 0.640625 2.25q0.65625 0.734375 1.640625 0.734375q0.984375 0 1.640625 -0.75q0.65625 -0.75 0.65625 -2.28125q0 -1.4375 -0.65625 -2.171875q-0.65625 -0.75 -1.640625 -0.75q-0.984375 0 -1.640625 0.734375q-0.640625 0.734375 -0.640625 2.234375zm7.041733 4.53125l1.28125 0.1875q0.078125 0.59375 0.4375 0.875q0.5 0.359375 1.34375 0.359375q0.921875 0 1.421875 -0.375q0.5 -0.359375 0.671875 -1.015625q0.09375 -0.40625 0.09375 -1.6875q-0.859375 1.015625 -2.15625 1.015625q-1.609375 0 -2.484375 -1.15625q-0.875 -1.15625 -0.875 -2.78125q0 -1.109375 0.40625 -2.046875q0.40625 -0.9375 1.15625 -1.453125q0.765625 -0.515625 1.8125 -0.515625q1.375 0 2.265625 1.109375l0 -0.9375l1.21875 0l0 6.71875q0 1.828125 -0.375 2.578125q-0.375 0.765625 -1.171875 1.203125q-0.796875 0.4375 -1.96875 0.4375q-1.390625 0 -2.25 -0.625q-0.859375 -0.625 -0.828125 -1.890625zm1.09375 -4.671875q0 1.53125 0.59375 2.234375q0.609375 0.703125 1.53125 0.703125q0.90625 0 1.515625 -0.6875q0.625 -0.703125 0.625 -2.203125q0 -1.421875 -0.640625 -2.140625q-0.625 -0.734375 -1.515625 -0.734375q-0.890625 0 -1.5 0.71875q-0.609375 0.703125 -0.609375 2.109375z" fill-rule="nonzero"></path><path stroke="#000000" stroke-width="1.3333333333333333" stroke-linecap="butt" d="m216.0 15.501312l0 157.66405" fill-rule="nonzero"></path><path stroke="#000000" stroke-width="1.3333333333333333" stroke-linecap="butt" d="m296.33597 15.501312l0 157.66405" fill-rule="nonzero"></path><path stroke="#000000" stroke-width="1.3333333333333333" stroke-linecap="butt" d="m376.6719 15.501312l0 157.66405" fill-rule="nonzero"></path><path stroke="#000000" stroke-width="1.3333333333333333" stroke-linecap="butt" d="m457.00787 15.501312l0 157.66405" fill-rule="nonzero"></path><path stroke="#000000" stroke-width="1.3333333333333333" stroke-linecap="butt" d="m215.50131 16.0l242.00525 0" fill-rule="nonzero"></path><path stroke="#000000" stroke-width="1.3333333333333333" stroke-linecap="butt" d="m215.50131 47.333332l242.00525 0" fill-rule="nonzero"></path><path stroke="#000000" stroke-width="1.3333333333333333" stroke-linecap="butt" d="m215.50131 78.666664l242.00525 0" fill-rule="nonzero"></path><path stroke="#000000" stroke-width="1.3333333333333333" stroke-linecap="butt" d="m215.50131 110.0l242.00525 0" fill-rule="nonzero"></path><path stroke="#000000" stroke-width="1.3333333333333333" stroke-linecap="butt" d="m215.50131 141.33333l242.00525 0" fill-rule="nonzero"></path><path stroke="#000000" stroke-width="1.3333333333333333" stroke-linecap="butt" d="m215.50131 172.66667l242.00525 0" fill-rule="nonzero"></path><path fill="#000000" d="m223.03125 36.08l0 -10.734377l2.15625 0l0 10.734377l-2.15625 0zm3.4001007 -2.21875l2.0625 -0.3125q0.125 0.59375 0.53125 0.90625q0.40625 0.3125 1.125 0.3125q0.796875 0 1.203125 -0.296875q0.265625 -0.203125 0.265625 -0.546875q0 -0.234375 -0.140625 -0.390625q-0.15625 -0.140625 -0.6875 -0.265625q-2.484375 -0.546875 -3.15625 -1.0q-0.921875 -0.6406269 -0.921875 -1.7500019q0 -1.015625 0.796875 -1.703125q0.796875 -0.6875 2.46875 -0.6875q1.609375 0 2.375 0.515625q0.78125 0.515625 1.078125 1.546875l-1.953125 0.359375q-0.125 -0.453125 -0.46875 -0.6875q-0.34375 -0.25 -0.984375 -0.25q-0.8125 0 -1.171875 0.21875q-0.234375 0.15625 -0.234375 0.421875q0 0.21875 0.203125 0.375q0.28125 0.203125 1.921875 0.578125q1.65625 0.375 2.296875 0.9062519q0.65625 0.5625 0.65625 1.53125q0 1.078125 -0.90625 1.84375q-0.890625 0.765625 -2.640625 0.765625q-1.59375 0 -2.515625 -0.640625q-0.921875 -0.640625 -1.203125 -1.75zm19.832458 -1.734375l2.09375 0.671875q-0.484375 1.75 -1.609375 2.609375q-1.125 0.859375 -2.84375 0.859375q-2.140625 0 -3.53125 -1.453125q-1.375 -1.46875 -1.375 -4.015627q0 -2.671875 1.390625 -4.15625q1.390625 -1.484375 3.640625 -1.484375q1.96875 0 3.203125 1.171875q0.734375 0.6875 1.09375 1.96875l-2.140625 0.515625q-0.1875 -0.828125 -0.796875 -1.3125q-0.609375 -0.484375 -1.46875 -0.484375q-1.1875 0 -1.9375 0.859375q-0.75 0.84375 -0.75 2.765625q0 2.031252 0.734375 2.906252q0.734375 0.859375 1.90625 0.859375q0.875 0 1.484375 -0.546875q0.625 -0.546875 0.90625 -1.734375zm5.2248993 -1.4531269l-1.859375 -0.34375q0.3125 -1.125 1.078125 -1.65625q0.765625 -0.546875 2.28125 -0.546875q1.390625 0 2.0625 0.328125q0.671875 0.328125 0.9375 0.828125q0.28125 0.5 0.28125 1.84375l-0.015625 2.390627q0 1.03125 0.09375 1.515625q0.09375 0.484375 0.375 1.046875l-2.046875 0q-0.078125 -0.203125 -0.1875 -0.609375q-0.0625 -0.1875 -0.078125 -0.234375q-0.53125 0.5 -1.140625 0.765625q-0.59375 0.25 -1.265625 0.25q-1.203125 0 -1.90625 -0.640625q-0.6875 -0.65625 -0.6875 -1.65625q0 -0.65625 0.3125 -1.171875q0.328125 -0.515625 0.890625 -0.78125q0.5625 -0.2812519 1.640625 -0.5000019q1.4375 -0.265625 2.0 -0.5l0 -0.203125q0 -0.59375 -0.296875 -0.84375q-0.296875 -0.25 -1.109375 -0.25q-0.546875 0 -0.859375 0.21875q-0.296875 0.203125 -0.5 0.75zm2.765625 1.6718769q-0.40625 0.125 -1.265625 0.3125q-0.84375 0.1875 -1.109375 0.359375q-0.40625 0.28125 -0.40625 0.71875q0 0.4375 0.3125 0.75q0.328125 0.3125 0.828125 0.3125q0.5625 0 1.0625 -0.359375q0.375 -0.28125 0.484375 -0.6875q0.09375 -0.25 0.09375 -1.0l0 -0.40625zm7.416748 -4.046877l0 1.640625l-1.40625 0l0 3.140627q0 0.953125 0.03125 1.109375q0.046875 0.15625 0.1875 0.265625q0.15625 0.09375 0.359375 0.09375q0.28125 0 0.828125 -0.203125l0.171875 1.609375q-0.71875 0.296875 -1.625 0.296875q-0.5625 0 -1.015625 -0.1875q-0.4375 -0.1875 -0.65625 -0.484375q-0.203125 -0.296875 -0.28125 -0.796875q-0.0625 -0.359375 -0.0625 -1.453125l0 -3.390627l-0.9375 0l0 -1.640625l0.9375 0l0 -1.546875l2.0625 -1.203125l0 2.75l1.40625 0z" fill-rule="nonzero"></path><path fill="#000000" d="m303.36722 36.08l0 -10.734377l2.15625 0l0 10.734377l-2.15625 0zm3.4000854 -2.21875l2.0625 -0.3125q0.125 0.59375 0.53125 0.90625q0.40625 0.3125 1.125 0.3125q0.796875 0 1.203125 -0.296875q0.265625 -0.203125 0.265625 -0.546875q0 -0.234375 -0.140625 -0.390625q-0.15625 -0.140625 -0.6875 -0.265625q-2.484375 -0.546875 -3.15625 -1.0q-0.921875 -0.6406269 -0.921875 -1.7500019q0 -1.015625 0.796875 -1.703125q0.796875 -0.6875 2.46875 -0.6875q1.609375 0 2.375 0.515625q0.78125 0.515625 1.078125 1.546875l-1.953125 0.359375q-0.125 -0.453125 -0.46875 -0.6875q-0.34375 -0.25 -0.984375 -0.25q-0.8125 0 -1.171875 0.21875q-0.234375 0.15625 -0.234375 0.421875q0 0.21875 0.203125 0.375q0.28125 0.203125 1.921875 0.578125q1.65625 0.375 2.296875 0.9062519q0.65625 0.5625 0.65625 1.53125q0 1.078125 -0.90625 1.84375q-0.890625 0.765625 -2.640625 0.765625q-1.59375 0 -2.515625 -0.640625q-0.921875 -0.640625 -1.203125 -1.75zm12.9418335 -8.515627l3.96875 0q1.34375 0 2.046875 0.203125q0.9375 0.28125 1.609375 1.0q0.671875 0.703125 1.015625 1.734375q0.359375 1.015625 0.359375 2.53125q0 1.3281269 -0.328125 2.281252q-0.390625 1.171875 -1.140625 1.90625q-0.5625 0.546875 -1.53125 0.84375q-0.71875 0.234375 -1.921875 0.234375l-4.078125 0l0 -10.734377zm2.171875 1.8125l0 7.109377l1.625 0q0.90625 0 1.3125 -0.09375q0.515625 -0.140625 0.859375 -0.453125q0.359375 -0.3125 0.578125 -1.03125q0.21875 -0.7187519 0.21875 -1.9687519q0 -1.25 -0.21875 -1.90625q-0.21875 -0.671875 -0.625 -1.046875q-0.390625 -0.375 -1.0 -0.5q-0.453125 -0.109375 -1.78125 -0.109375l-0.96875 0zm7.9280396 4.921877q0 -1.0312519 0.5 -1.9843769q0.515625 -0.953125 1.4375 -1.453125q0.9375 -0.515625 2.078125 -0.515625q1.765625 0 2.890625 1.15625q1.125 1.140625 1.125 2.890627q0 1.765625 -1.140625 2.921875q-1.140625 1.15625 -2.859375 1.15625q-1.078125 0 -2.046875 -0.484375q-0.96875 -0.484375 -1.484375 -1.40625q-0.5 -0.9375 -0.5 -2.28125zm2.109375 0.109375q0 1.15625 0.546875 1.78125q0.5625 0.609375 1.359375 0.609375q0.8125 0 1.359375 -0.609375q0.546875 -0.625 0.546875 -1.796875q0 -1.1406269 -0.546875 -1.7500019q-0.546875 -0.625 -1.359375 -0.625q-0.796875 0 -1.359375 0.625q-0.546875 0.609375 -0.546875 1.7656269zm7.140106 4.40625l2.34375 0.28125q0.0625 0.40625 0.28125 0.5625q0.28125 0.21875 0.921875 0.21875q0.796875 0 1.203125 -0.234375q0.265625 -0.171875 0.40625 -0.515625q0.09375 -0.265625 0.09375 -0.953125l0 -1.140625q-0.921875 1.265625 -2.328125 1.265625q-1.5625 0 -2.484375 -1.328125q-0.71875 -1.046875 -0.71875 -2.609375q0 -1.9531269 0.9375 -2.984377q0.953125 -1.03125 2.34375 -1.03125q1.453125 0 2.390625 1.265625l0 -1.09375l1.921875 0l0 6.984377q0 1.375 -0.234375 2.046875q-0.21875 0.6875 -0.640625 1.078125q-0.40625 0.390625 -1.09375 0.609375q-0.671875 0.21875 -1.71875 0.21875q-1.984375 0 -2.8125 -0.6875q-0.828125 -0.671875 -0.828125 -1.703125q0 -0.109375 0.015625 -0.25zm1.828125 -4.5625q0 1.234375 0.484375 1.8125q0.484375 0.578125 1.1875 0.578125q0.75 0 1.265625 -0.59375q0.53125 -0.59375 0.53125 -1.75q0 -1.2031269 -0.5 -1.7812519q-0.5 -0.59375 -1.265625 -0.59375q-0.734375 0 -1.21875 0.578125q-0.484375 0.5625 -0.484375 1.7500019z" fill-rule="nonzero"></path><path fill="#000000" d="m383.70316 36.08l0 -10.734377l2.15625 0l0 10.734377l-2.15625 0zm3.400116 -2.21875l2.0625 -0.3125q0.125 0.59375 0.53125 0.90625q0.40625 0.3125 1.125 0.3125q0.796875 0 1.203125 -0.296875q0.265625 -0.203125 0.265625 -0.546875q0 -0.234375 -0.140625 -0.390625q-0.15625 -0.140625 -0.6875 -0.265625q-2.484375 -0.546875 -3.15625 -1.0q-0.921875 -0.6406269 -0.921875 -1.7500019q0 -1.015625 0.796875 -1.703125q0.796875 -0.6875 2.46875 -0.6875q1.609375 0 2.375 0.515625q0.78125 0.515625 1.078125 1.546875l-1.953125 0.359375q-0.125 -0.453125 -0.46875 -0.6875q-0.34375 -0.25 -0.984375 -0.25q-0.8125 0 -1.171875 0.21875q-0.234375 0.15625 -0.234375 0.421875q0 0.21875 0.203125 0.375q0.28125 0.203125 1.921875 0.578125q1.65625 0.375 2.296875 0.9062519q0.65625 0.5625 0.65625 1.53125q0 1.078125 -0.90625 1.84375q-0.890625 0.765625 -2.640625 0.765625q-1.59375 0 -2.515625 -0.640625q-0.921875 -0.640625 -1.203125 -1.75zm12.9730835 2.21875l0 -10.734377l7.359375 0l0 1.8125l-5.1875 0l0 2.546875l4.46875 0l0 1.8125l-4.46875 0l0 4.562502l-2.171875 0zm8.921356 -8.828127l0 -1.90625l2.0625 0l0 1.90625l-2.0625 0zm0 8.828127l0 -7.781252l2.0625 0l0 7.781252l-2.0625 0zm3.353241 -2.21875l2.0625 -0.3125q0.125 0.59375 0.53125 0.90625q0.40625 0.3125 1.125 0.3125q0.796875 0 1.203125 -0.296875q0.265625 -0.203125 0.265625 -0.546875q0 -0.234375 -0.140625 -0.390625q-0.15625 -0.140625 -0.6875 -0.265625q-2.484375 -0.546875 -3.15625 -1.0q-0.921875 -0.6406269 -0.921875 -1.7500019q0 -1.015625 0.796875 -1.703125q0.796875 -0.6875 2.46875 -0.6875q1.609375 0 2.375 0.515625q0.78125 0.515625 1.078125 1.546875l-1.953125 0.359375q-0.125 -0.453125 -0.46875 -0.6875q-0.34375 -0.25 -0.984375 -0.25q-0.8125 0 -1.171875 0.21875q-0.234375 0.15625 -0.234375 0.421875q0 0.21875 0.203125 0.375q0.28125 0.203125 1.921875 0.578125q1.65625 0.375 2.296875 0.9062519q0.65625 0.5625 0.65625 1.53125q0 1.078125 -0.90625 1.84375q-0.890625 0.765625 -2.640625 0.765625q-1.59375 0 -2.515625 -0.640625q-0.921875 -0.640625 -1.203125 -1.75zm10.916718 -8.515627l0 3.9375q1.0 -1.15625 2.390625 -1.15625q0.703125 0 1.265625 0.265625q0.578125 0.265625 0.859375 0.671875q0.296875 0.40625 0.40625 0.90625q0.109375 0.5 0.109375 1.546875l0 4.562502l-2.0625 0l0 -4.109377q0 -1.21875 -0.125 -1.546875q-0.109375 -0.328125 -0.40625 -0.515625q-0.296875 -0.203125 -0.75 -0.203125q-0.5 0 -0.90625 0.25q-0.40625 0.25 -0.59375 0.75q-0.1875 0.5 -0.1875 1.4843769l0 3.890625l-2.0625 0l0 -10.734377l2.0625 0z" fill-rule="nonzero"></path><path fill="#000000" d="m227.59375 67.41333l-1.328125 0l0 -8.406246q-0.46875 0.453125 -1.25 0.921875q-0.765625 0.453125 -1.375 0.671875l0 -1.28125q1.09375 -0.515625 1.921875 -1.25q0.828125 -0.734375 1.171875 -1.4375l0.859375 0l0 10.781246z" fill-rule="nonzero"></path><path fill="#000000" d="m302.96097 62.11646q0 -1.90625 0.390625 -3.0625q0.390625 -1.15625 1.15625 -1.78125q0.78125 -0.640625 1.953125 -0.640625q0.859375 0 1.515625 0.359375q0.65625 0.34375 1.078125 1.0q0.421875 0.640625 0.65625 1.59375q0.25 0.9375 0.25 2.53125q0 1.8906212 -0.390625 3.0624962q-0.390625 1.15625 -1.171875 1.796875q-0.765625 0.625 -1.9375 0.625q-1.546875 0 -2.4375 -1.125q-1.0625 -1.328125 -1.0625 -4.359371zm1.359375 0q0 2.6406212 0.609375 3.5156212q0.625 0.875 1.53125 0.875q0.90625 0 1.515625 -0.875q0.625 -0.875 0.625 -3.5156212q0 -2.65625 -0.625 -3.515625q-0.609375 -0.875 -1.53125 -0.875q-0.90625 0 -1.453125 0.765625q-0.671875 0.984375 -0.671875 3.625z" fill-rule="nonzero"></path><path fill="#000000" d="m383.2969 62.11646q0 -1.90625 0.390625 -3.0625q0.390625 -1.15625 1.15625 -1.78125q0.78125 -0.640625 1.953125 -0.640625q0.859375 0 1.515625 0.359375q0.65625 0.34375 1.078125 1.0q0.421875 0.640625 0.65625 1.59375q0.25 0.9375 0.25 2.53125q0 1.8906212 -0.390625 3.0624962q-0.390625 1.15625 -1.171875 1.796875q-0.765625 0.625 -1.9375 0.625q-1.546875 0 -2.4375 -1.125q-1.0625 -1.328125 -1.0625 -4.359371zm1.359375 0q0 2.6406212 0.609375 3.5156212q0.625 0.875 1.53125 0.875q0.90625 0 1.515625 -0.875q0.625 -0.875 0.625 -3.5156212q0 -2.65625 -0.625 -3.515625q-0.609375 -0.875 -1.53125 -0.875q-0.90625 0 -1.453125 0.765625q-0.671875 0.984375 -0.671875 3.625z" fill-rule="nonzero"></path><path fill="#000000" d="m222.625 93.44979q0 -1.90625 0.390625 -3.0625q0.390625 -1.15625 1.15625 -1.78125q0.78125 -0.640625 1.953125 -0.640625q0.859375 0 1.515625 0.359375q0.65625 0.34375 1.078125 1.0q0.421875 0.640625 0.65625 1.59375q0.25 0.9375 0.25 2.53125q0 1.890625 -0.390625 3.0625q-0.390625 1.15625 -1.171875 1.796875q-0.765625 0.625 -1.9375 0.625q-1.546875 0 -2.4375 -1.125q-1.0625 -1.328125 -1.0625 -4.359375zm1.359375 0q0 2.640625 0.609375 3.515625q0.625 0.875 1.53125 0.875q0.90625 0 1.515625 -0.875q0.625 -0.875 0.625 -3.515625q0 -2.65625 -0.625 -3.515625q-0.609375 -0.875 -1.53125 -0.875q-0.90625 0 -1.453125 0.765625q-0.671875 0.984375 -0.671875 3.625z" fill-rule="nonzero"></path><path fill="#000000" d="m307.92972 98.746666l-1.328125 0l0 -8.40625q-0.46875 0.453125 -1.25 0.921875q-0.765625 0.453125 -1.375 0.671875l0 -1.28125q1.09375 -0.515625 1.921875 -1.25q0.828125 -0.734375 1.171875 -1.4375l0.859375 0l0 10.78125z" fill-rule="nonzero"></path><path fill="#000000" d="m383.2969 93.44979q0 -1.90625 0.390625 -3.0625q0.390625 -1.15625 1.15625 -1.78125q0.78125 -0.640625 1.953125 -0.640625q0.859375 0 1.515625 0.359375q0.65625 0.34375 1.078125 1.0q0.421875 0.640625 0.65625 1.59375q0.25 0.9375 0.25 2.53125q0 1.890625 -0.390625 3.0625q-0.390625 1.15625 -1.171875 1.796875q-0.765625 0.625 -1.9375 0.625q-1.546875 0 -2.4375 -1.125q-1.0625 -1.328125 -1.0625 -4.359375zm1.359375 0q0 2.640625 0.609375 3.515625q0.625 0.875 1.53125 0.875q0.90625 0 1.515625 -0.875q0.625 -0.875 0.625 -3.515625q0 -2.65625 -0.625 -3.515625q-0.609375 -0.875 -1.53125 -0.875q-0.90625 0 -1.453125 0.765625q-0.671875 0.984375 -0.671875 3.625z" fill-rule="nonzero"></path><path fill="#000000" d="m222.625 124.78313q0 -1.90625 0.390625 -3.0625q0.390625 -1.15625 1.15625 -1.78125q0.78125 -0.640625 1.953125 -0.640625q0.859375 0 1.515625 0.359375q0.65625 0.34375 1.078125 1.0q0.421875 0.640625 0.65625 1.59375q0.25 0.9375 0.25 2.53125q0 1.890625 -0.390625 3.0625q-0.390625 1.15625 -1.171875 1.796875q-0.765625 0.625 -1.9375 0.625q-1.546875 0 -2.4375 -1.125q-1.0625 -1.328125 -1.0625 -4.359375zm1.359375 0q0 2.640625 0.609375 3.515625q0.625 0.875 1.53125 0.875q0.90625 0 1.515625 -0.875q0.625 -0.875 0.625 -3.515625q0 -2.65625 -0.625 -3.515625q-0.609375 -0.875 -1.53125 -0.875q-0.90625 0 -1.453125 0.765625q-0.671875 0.984375 -0.671875 3.625z" fill-rule="nonzero"></path><path fill="#000000" d="m302.96097 124.78313q0 -1.90625 0.390625 -3.0625q0.390625 -1.15625 1.15625 -1.78125q0.78125 -0.640625 1.953125 -0.640625q0.859375 0 1.515625 0.359375q0.65625 0.34375 1.078125 1.0q0.421875 0.640625 0.65625 1.59375q0.25 0.9375 0.25 2.53125q0 1.890625 -0.390625 3.0625q-0.390625 1.15625 -1.171875 1.796875q-0.765625 0.625 -1.9375 0.625q-1.546875 0 -2.4375 -1.125q-1.0625 -1.328125 -1.0625 -4.359375zm1.359375 0q0 2.640625 0.609375 3.515625q0.625 0.875 1.53125 0.875q0.90625 0 1.515625 -0.875q0.625 -0.875 0.625 -3.515625q0 -2.65625 -0.625 -3.515625q-0.609375 -0.875 -1.53125 -0.875q-0.90625 0 -1.453125 0.765625q-0.671875 0.984375 -0.671875 3.625z" fill-rule="nonzero"></path><path fill="#000000" d="m388.26566 130.08l-1.328125 0l0 -8.40625q-0.46875 0.453125 -1.25 0.921875q-0.765625 0.453125 -1.375 0.671875l0 -1.28125q1.09375 -0.515625 1.921875 -1.25q0.828125 -0.734375 1.171875 -1.4375l0.859375 0l0 10.78125z" fill-rule="nonzero"></path><path fill="#000000" d="m222.625 156.11646q0 -1.90625 0.390625 -3.0625q0.390625 -1.15625 1.15625 -1.78125q0.78125 -0.640625 1.953125 -0.640625q0.859375 0 1.515625 0.359375q0.65625 0.34375 1.078125 1.0q0.421875 0.640625 0.65625 1.59375q0.25 0.9375 0.25 2.53125q0 1.890625 -0.390625 3.0625q-0.390625 1.15625 -1.171875 1.796875q-0.765625 0.625 -1.9375 0.625q-1.546875 0 -2.4375 -1.125q-1.0625 -1.328125 -1.0625 -4.359375zm1.359375 0q0 2.640625 0.609375 3.515625q0.625 0.875 1.53125 0.875q0.90625 0 1.515625 -0.875q0.625 -0.875 0.625 -3.515625q0 -2.65625 -0.625 -3.515625q-0.609375 -0.875 -1.53125 -0.875q-0.90625 0 -1.453125 0.765625q-0.671875 0.984375 -0.671875 3.625z" fill-rule="nonzero"></path><path fill="#000000" d="m307.92972 161.41333l-1.328125 0l0 -8.40625q-0.46875 0.453125 -1.25 0.921875q-0.765625 0.453125 -1.375 0.671875l0 -1.28125q1.09375 -0.515625 1.921875 -1.25q0.828125 -0.734375 1.171875 -1.4375l0.859375 0l0 10.78125z" fill-rule="nonzero"></path><path fill="#000000" d="m383.2969 156.11646q0 -1.90625 0.390625 -3.0625q0.390625 -1.15625 1.15625 -1.78125q0.78125 -0.640625 1.953125 -0.640625q0.859375 0 1.515625 0.359375q0.65625 0.34375 1.078125 1.0q0.421875 0.640625 0.65625 1.59375q0.25 0.9375 0.25 2.53125q0 1.890625 -0.390625 3.0625q-0.390625 1.15625 -1.171875 1.796875q-0.765625 0.625 -1.9375 0.625q-1.546875 0 -2.4375 -1.125q-1.0625 -1.328125 -1.0625 -4.359375zm1.359375 0q0 2.640625 0.609375 3.515625q0.625 0.875 1.53125 0.875q0.90625 0 1.515625 -0.875q0.625 -0.875 0.625 -3.515625q0 -2.65625 -0.625 -3.515625q-0.609375 -0.875 -1.53125 -0.875q-0.90625 0 -1.453125 0.765625q-0.671875 0.984375 -0.671875 3.625z" fill-rule="nonzero"></path><path fill="#000000" fill-opacity="0.0" d="m142.0 78.01312l27.496063 0l0 -12.0l24.0 24.0l-24.0 24.0l0 -12.0l-27.496063 0z" fill-rule="evenodd"></path><path stroke="#000000" stroke-width="2.0" stroke-linejoin="round" stroke-linecap="butt" d="m142.0 78.01312l27.496063 0l0 -12.0l24.0 24.0l-24.0 24.0l0 -12.0l-27.496063 0z" fill-rule="evenodd"></path></g></svg>

